<?xml version="1.0" encoding="UTF-8" standalone="no"?>
<!-- Created with Inkscape (http://www.inkscape.org/) -->

<svg
   width="149.84035mm"
   height="151.8145mm"
   viewBox="0 0 149.84035 151.8145"
   version="1.1"
   id="svg1"
   xml:space="preserve"
   inkscape:version="1.4.3 (0d15f75042, 2025-12-25)"
   sodipodi:docname="pillbug_logo.svg"
   xmlns:inkscape="http://www.inkscape.org/namespaces/inkscape"
   xmlns:sodipodi="http://sodipodi.sourceforge.net/DTD/sodipodi-0.dtd"
   xmlns="http://www.w3.org/2000/svg"
   xmlns:svg="http://www.w3.org/2000/svg"><sodipodi:namedview
     id="namedview1"
     pagecolor="#ffffff"
     bordercolor="#000000"
     borderopacity="0.25"
     inkscape:showpageshadow="2"
     inkscape:pageopacity="0.0"
     inkscape:pagecheckerboard="0"
     inkscape:deskcolor="#d1d1d1"
     inkscape:document-units="mm"
     inkscape:zoom="0.49638341"
     inkscape:cx="72.524584"
     inkscape:cy="310.24405"
     inkscape:window-width="1920"
     inkscape:window-height="1012"
     inkscape:window-x="0"
     inkscape:window-y="0"
     inkscape:window-maximized="1"
     inkscape:current-layer="layer1" /><defs
     id="defs1" /><g
     inkscape:label="Layer 1"
     inkscape:groupmode="layer"
     id="layer1"
     transform="translate(-26.550657,-20.956968)"><path
       style="fill:#3d4450;fill-opacity:1;stroke:none"
       d="m 102.6334,108.33626 c 2.60068,4.68991 5.28688,9.33782 7.90055,14.02292 1.33826,2.39888 3.15749,4.99138 3.84442,7.67292 0.50854,1.98515 -0.0934,4.08329 -0.1031,6.08541 -0.0253,5.25182 -0.25171,10.649 -0.74904,15.87501 -0.28404,2.98473 -0.24434,6.00486 -0.52916,8.99583 -0.12684,1.33191 0.12332,2.79122 -0.72332,3.94404 -2.52522,3.4385 -8.43643,5.07592 -12.0216,7.16846 3.7521,1.57445 10.39196,-0.0308 14.2875,-0.68433 6.53103,-1.09563 12.49802,-3.28439 18.52083,-5.96701 2.19204,-0.97634 5.64898,-2.17845 7.2395,-4.01897 2.16253,-2.50243 3.15136,-6.93797 4.44177,-9.96719 1.00102,-2.34989 3.31777,-6.14783 3.18889,-8.73125 -0.0617,-1.23633 -1.33098,-2.47991 -2.01705,-3.43959 l -5.70936,-7.9375 c -2.27799,-3.1948 -4.63098,-6.33569 -6.91632,-9.525 -1.12488,-1.56981 -2.19358,-3.67794 -3.71295,-4.89213 -2.14996,-1.71814 -5.8494,-2.24376 -8.42073,-3.13641 -6.01932,-2.08966 -12.09215,-4.95361 -18.52083,-5.46521 z"
       id="path10" /><path
       style="fill:#414955;fill-opacity:1;stroke:none"
       d="m 94.960494,107.27793 c -0.99717,5.29259 -1.95973,10.59383 -3.01617,15.875 -0.44443,2.22173 -0.52717,5.11942 -1.56198,7.14375 -1.03363,2.02203 -3.35611,3.70092 -4.94685,5.29167 l -10.05417,10.05416 c -2.48156,2.48554 -4.79533,5.2642 -7.40935,7.59738 -0.91084,0.81298 -1.95206,2.07211 -3.17398,2.37248 -3.71028,0.91206 -9.65491,-2.11507 -13.22917,-3.09069 2.10117,2.98089 5.68832,5.22586 8.73125,7.15783 6.08435,3.86298 12.18942,7.12749 19.05,9.42273 2.78093,0.93037 7.10216,2.64232 10.05417,2.32021 3.04445,-0.3322 6.79165,-3.18127 9.52499,-4.54795 2.347306,-1.17365 6.696406,-2.54629 8.307016,-4.65021 0.76571,-1.00022 0.38304,-2.70315 0.43465,-3.88177 0.12682,-2.896 0.34428,-5.83773 0.54243,-8.73125 0.25935,-3.78706 0.26987,-7.59076 0.52917,-11.37709 0.15135,-2.21004 0.74659,-4.95889 0.3344,-7.14375 -0.84365,-4.47179 -4.97337,-9.51877 -7.1564,-13.49375 -1.65702,-3.01719 -3.800746,-8.70478 -6.960006,-10.31875"
       id="path9" /><path
       style="fill:#3d4450;fill-opacity:1;stroke:none"
       d="m 116.65632,106.21959 c 4.25356,3.4331 11.10523,2.92767 15.60654,6.00661 2.1352,1.46051 3.59602,4.38364 5.12977,6.42881 3.78049,5.04106 7.30928,10.27003 11.04431,15.34584 1.49795,2.03568 4.86811,5.34442 5.07751,7.9375 0.34421,4.26238 -3.60049,8.81861 -4.31438,12.96458 4.13093,-2.58392 7.58904,-6.83128 10.63518,-10.58333 3.6938,-4.54977 9.88172,-11.64014 10.3506,-17.72709 0.15571,-2.02124 -0.85476,-4.48599 -1.56851,-6.35 -2.16637,-5.65766 -4.69424,-8.97818 -9.89227,-12.11694 -12.36571,-7.46685 -28.99357,-7.70183 -42.06875,-1.90598"
       id="path8" /><path
       style="fill:#444c59;stroke:none"
       d="m 26.697994,105.42584 c 2.26146,10.96245 4.85098,21.72199 11.11331,31.22084 1.69363,2.56893 3.49167,6.26624 6.08562,8.01631 2.47281,1.66832 6.4076,2.02016 9.2594,2.79159 2.45828,0.665 4.93839,1.24193 7.40833,1.85863 0.92718,0.23149 2.22755,0.81424 3.175,0.47587 1.13755,-0.40624 2.0803,-1.72895 2.91042,-2.55907 l 6.08542,-6.08541 c 2.87091,-2.87091 5.6395,-5.8291 8.47054,-8.73125 1.26622,-1.29803 3.25662,-2.61388 4.07817,-4.24375 1.18798,-2.35677 1.3263,-5.86558 1.84454,-8.45625 1.1998,-5.99777 2.36304,-12.00326 3.59841,-17.99167 -2.1786,0.59347 -4.25265,2.69485 -6.08541,4.0059 -4.74173,3.39196 -9.59415,7.76443 -14.81667,10.35857 -2.33527,1.15997 -6.16633,0.4522 -8.73125,0.4522 h -17.72708 c -2.30983,0 -5.7638,0.64566 -7.9373,-0.15965 -4.30634,-1.59555 -4.91972,-8.86221 -8.73145,-10.95286"
       id="path7" /><path
       style="fill:#5b748f;fill-opacity:1;stroke:none"
       d="m 140.20427,82.142513 c -2.7394,2.23167 -4.21221,6.58803 -5.50317,9.78958 -0.32724,0.81158 -1.4722,2.67279 -0.67657,3.45612 0.98633,0.97107 3.79778,1.0949 5.12141,1.39866 5.03065,1.15449 10.19791,1.91275 15.34583,2.26529 6.08429,0.41666 10.76626,-3.67248 15.34584,-7.15457 1.96302,-1.49259 4.42595,-3.13442 6.00131,-5.0375 1.07732,-1.30143 0.29462,-3.4826 0.0151,-4.98216 -0.81881,-4.39261 -1.96966,-8.79396 -3.58515,-12.96459 -0.48036,-1.24012 -1.14733,-4.05443 -2.48761,-4.59897 -1.49947,-0.60924 -4.25416,0.44419 -5.76449,0.78272 -5.80139,1.30039 -14.05764,4.445946 -17.54356,9.145398 2.0721,0.731632 3.83662,1.362482 5.37269,2.505052 5.73637,4.26687 5.89342,10.21719 7.40833,16.50747 l -3.96976,-4.20965 c -7.26409,0.347995 -8.32321,0.401434 -11.48014,-1.19105 -1.19618,-0.603402 -3.38075,-3.2158 -3.60006,-5.7118 z"
       id="path6" /><path
       style="fill:#00a1e9;fill-opacity:1;stroke:none"
       d="m 149.71866,87.827383 c 1.83672,-1.395742 2.58739,-4.07024 1.79287,-6.21384 -0.59627,-1.60868 -2.72175,-2.98186 -4.34399,-1.81512 -1.09628,0.78846 0.34965,2.615434 -0.55758,3.639894 -1.53051,1.72828 -2.75826,2.282124 -2.11666,3.47806 0.90375,1.684609 3.84631,1.958962 5.22536,0.911006 z"
       id="path5" /><path
       style="fill:#3f5263;fill-opacity:1;stroke:none"
       d="m 39.927154,54.096673 c -6.0617,8.98543 -10.44554,18.91029 -12.23616,29.63334 -0.54768,3.27976 -1.63081,7.54838 -0.88889,10.84792 0.6814,3.03036 3.6619,6.365867 5.30004,8.995827 1.36539,2.19206 2.89993,5.41732 4.9393,7.02901 1.15665,0.91409 2.82767,0.64391 4.20863,0.64391 h 9.26042 11.90625 c 1.68187,0 3.95396,0.39512 5.55625,-0.15578 1.62283,-0.55795 3.11593,-2.17368 4.49791,-3.17152 3.05837,-2.20824 6.21262,-4.27994 9.26042,-6.5023 3.10316,-2.262737 7.98015,-4.566717 9.26042,-8.426647 -5.97695,-0.0495 -12.04555,-1.21284 -17.99167,-1.80737 -2.53227,-0.25319 -6.15802,0.11078 -8.46667,-0.98995 -2.13297,-1.01697 -3.85359,-3.26586 -5.55625,-4.85192 -3.5182,-3.27727 -7.107,-6.48009 -10.58333,-9.80285 -2.7625,-2.64045 -7.91811,-5.63677 -9.66852,-9.01666 -1.85874,-3.58906 2.49512,-8.80974 1.20185,-12.42501"
       id="path4" /><path
       style="fill:#536b82;fill-opacity:1;stroke:none"
       d="m 167.45632,59.123763 c -2.13456,-5.63979 -7.07494,-10.72012 -11.06759,-15.080236 -2.54135,-2.77525 -5.9082,-6.654309 -9.56991,-7.909934 -3.3066,-1.133845 -7.39852,-0.755461 -10.84792,-1.162461 -2.2542,-0.265972 -7.18781,-1.06707 -9.21162,0.08289 -1.85299,1.052891 -3.35325,4.338802 -4.53916,6.078069 -2.62904,3.855805 -5.12952,7.804692 -7.78989,11.641672 -1.35531,1.95471 -3.59144,4.31505 -4.25356,6.61458 -0.48791,1.69451 0.10823,3.57662 0.12863,5.29167 0.0514,4.31966 0.087,8.64829 0.27602,12.96458 0.0964,2.20117 -0.13681,5.0335 0.46281,7.14375 1.45785,5.13069 6.51148,7.00829 11.16844,8.2327 1.39365,0.36642 4.31893,1.66091 5.70998,1.10897 1.13212,-0.44921 1.67113,-3.51781 2.07522,-4.57917 1.45386,-3.81868 3.56652,-7.46602 5.84615,-10.84792 6.9041,-10.24245 19.06882,-18.58091 31.6124,-19.57916"
       id="path3" /><path
       style="fill:#4c6176;fill-opacity:1;stroke:none"
       d="m 96.547984,87.169593 c -1.09384,-2.34897 -3.50901,-4.47217 -5.28227,-6.35 -3.96607,-4.19995 -9.20606,-8.86051 -12.24861,-13.75833 -1.24916,-2.01086 -1.04715,-5.37809 -1.32986,-7.67292 -0.76134,-6.17985 -1.63584,-12.351135 -2.45822,-18.520833 -0.29603,-2.220908 -1.6154,-6.69184 -0.59388,-8.730233 1.88078,-3.753066 7.14924,-5.526811 9.74201,-8.732268 -9.89292,1.461022 -20.0678,7.61806 -28.04583,13.306133 -2.85249,2.033726 -6.87873,4.856083 -8.72901,7.86441 -1.74262,2.833306 -1.81219,7.852151 -2.36205,11.108621 -0.3964,2.34758 -1.66155,5.86496 -1.23656,8.20209 0.22951,1.26217 1.65087,2.32485 2.53804,3.15132 2.24409,2.09054 4.66111,4.00215 6.87916,6.11951 3.84283,3.66837 8.28966,9.27288 12.96459,11.7811 2.44127,1.3098 7.04281,1.04975 9.78958,1.18327 6.59617,0.32066 13.87385,2.7676 20.37291,1.04813"
       id="path2" /><path
       style="fill:#4f667c;fill-opacity:1;stroke:none"
       d="m 105.54382,85.846683 c -1.18255,-6.36993 -0.79375,-13.88546 -0.79375,-20.37292 0,-2.21342 -0.65473,-5.61295 0.13392,-7.67292 0.69397,-1.81266 2.23279,-3.42594 3.30546,-5.02708 2.42827,-3.62461 4.88252,-7.230085 7.32115,-10.84792 1.96485,-2.914954 3.90658,-5.867746 5.94558,-8.73125 0.80888,-1.135961 1.59112,-2.772101 2.87693,-3.432236 1.03703,-0.532412 2.56951,-0.271931 3.70029,-0.271931 h 8.46667 c -2.40093,-1.989349 -6.10259,-2.903392 -8.99584,-3.982024 -7.48058,-2.788864 -15.54803,-4.484642 -23.54791,-4.484642 -2.41027,0 -5.356556,-0.322655 -7.672916,0.45036 -3.067,1.023516 -5.95141,4.095325 -8.46666,6.05194 -2.21465,1.722779 -6.45937,3.853996 -7.65516,6.462493 -0.51099,1.114693 0.0188,3.051138 0.1723,4.233124 0.38917,2.996151 0.68218,6.00225 1.09835,8.995833 0.53909,3.877743 1.04177,7.759663 1.54749,11.641663 0.22214,1.70525 0.0958,4.00071 0.87357,5.55625 0.7528,1.5056 2.26279,2.71731 3.35853,3.96875 l 7.67313,8.73126 c 2.71943,3.08884 6.313356,8.0535 10.658866,8.73125"
       id="path1" /></g></svg>
